<svg width="27" height="26" viewBox="0 0 27 26" fill="none" xmlns="http://www.w3.org/2000/svg">
<path d="M13.5 0C10.9288 0 8.41543 0.762437 6.27759 2.1909C4.13975 3.61935 2.47351 5.64968 1.48957 8.02512C0.505633 10.4006 0.248189 13.0144 0.749797 15.5362C1.25141 18.0579 2.48953 20.3743 4.30762 22.1924C6.1257 24.0105 8.44208 25.2486 10.9638 25.7502C13.4856 26.2518 16.0995 25.9944 18.4749 25.0104C20.8503 24.0265 22.8807 22.3603 24.3091 20.2224C25.7376 18.0846 26.5 15.5712 26.5 13C26.4964 9.5533 25.1256 6.24882 22.6884 3.81163C20.2512 1.37445 16.9467 0.00363977 13.5 0ZM13.5 24C11.3244 24 9.19767 23.3549 7.38873 22.1462C5.57979 20.9375 4.16989 19.2195 3.33733 17.2095C2.50477 15.1995 2.28693 12.9878 2.71137 10.854C3.13581 8.72022 4.18345 6.7602 5.72183 5.22183C7.26021 3.68345 9.22022 2.6358 11.354 2.21136C13.4878 1.78692 15.6995 2.00476 17.7095 2.83733C19.7195 3.66989 21.4375 5.07979 22.6462 6.88873C23.8549 8.69767 24.5 10.8244 24.5 13C24.4967 15.9164 23.3367 18.7123 21.2745 20.7745C19.2123 22.8367 16.4164 23.9967 13.5 24ZM18.2075 13.2925C18.3005 13.3854 18.3742 13.4957 18.4246 13.6171C18.4749 13.7385 18.5008 13.8686 18.5008 14C18.5008 14.1314 18.4749 14.2615 18.4246 14.3829C18.3742 14.5043 18.3005 14.6146 18.2075 14.7075L14.2075 18.7075C14.1146 18.8005 14.0043 18.8742 13.8829 18.9246C13.7615 18.9749 13.6314 19.0008 13.5 19.0008C13.3686 19.0008 13.2385 18.9749 13.1171 18.9246C12.9957 18.8742 12.8854 18.8005 12.7925 18.7075L8.79251 14.7075C8.60486 14.5199 8.49945 14.2654 8.49945 14C8.49945 13.7346 8.60486 13.4801 8.79251 13.2925C8.98015 13.1049 9.23464 12.9994 9.50001 12.9994C9.76537 12.9994 10.0199 13.1049 10.2075 13.2925L12.5 15.5863V8C12.5 7.73478 12.6054 7.48043 12.7929 7.29289C12.9804 7.10536 13.2348 7 13.5 7C13.7652 7 14.0196 7.10536 14.2071 7.29289C14.3946 7.48043 14.5 7.73478 14.5 8V15.5863L16.7925 13.2925C16.8854 13.1995 16.9957 13.1258 17.1171 13.0754C17.2385 13.0251 17.3686 12.9992 17.5 12.9992C17.6314 12.9992 17.7615 13.0251 17.8829 13.0754C18.0043 13.1258 18.1146 13.1995 18.2075 13.2925Z" fill="#FFFFFF"/>
</svg>
