<svg width="12" height="10" viewBox="0 0 12 10" fill="none" xmlns="http://www.w3.org/2000/svg">
<path d="M10.8423 2.61536V7.54367C10.8423 7.87044 10.7125 8.18382 10.4814 8.41488C10.2504 8.64594 9.93698 8.77575 9.61021 8.77575H2.21774C1.89097 8.77575 1.57758 8.64594 1.34652 8.41488C1.11546 8.18382 0.985657 7.87044 0.985657 7.54367V2.61536" stroke="#D67888" stroke-width="0.827957" stroke-linecap="round" stroke-linejoin="round"/>
<path d="M10.8423 2.61535C10.8423 2.28858 10.7125 1.9752 10.4814 1.74414C10.2504 1.51308 9.93698 1.38327 9.61021 1.38327H2.21774C1.89097 1.38327 1.57758 1.51308 1.34652 1.74414C1.11546 1.9752 0.985657 2.28858 0.985657 2.61535L5.26097 5.28485C5.45679 5.40724 5.68306 5.47213 5.91397 5.47213C6.14489 5.47213 6.37116 5.40724 6.56697 5.28485L10.8423 2.61535Z" stroke="#D67888" stroke-width="0.827957" stroke-linecap="round" stroke-linejoin="round"/>
</svg>
