<svg width="25" height="14" viewBox="0 0 25 14" fill="none" xmlns="http://www.w3.org/2000/svg">
<path d="M25 6.91592C25 7.10623 24.8903 7.28874 24.6949 7.4233C24.4996 7.55787 24.2346 7.63347 23.9583 7.63347H1.04167C0.765399 7.63347 0.500448 7.55787 0.305097 7.4233C0.109747 7.28874 0 7.10623 0 6.91592C0 6.72562 0.109747 6.54311 0.305097 6.40854C0.500448 6.27397 0.765399 6.19838 1.04167 6.19838H23.9583C24.2346 6.19838 24.4996 6.27397 24.6949 6.40854C24.8903 6.54311 25 6.72562 25 6.91592ZM1.04167 1.8931H23.9583C24.2346 1.8931 24.4996 1.8175 24.6949 1.68294C24.8903 1.54837 25 1.36586 25 1.17555C25 0.985249 24.8903 0.802738 24.6949 0.668172C24.4996 0.533606 24.2346 0.458008 23.9583 0.458008H1.04167C0.765399 0.458008 0.500448 0.533606 0.305097 0.668172C0.109747 0.802738 0 0.985249 0 1.17555C0 1.36586 0.109747 1.54837 0.305097 1.68294C0.500448 1.8175 0.765399 1.8931 1.04167 1.8931ZM23.9583 11.9387H1.04167C0.765399 11.9387 0.500448 12.0143 0.305097 12.1489C0.109747 12.2835 0 12.466 0 12.6563C0 12.8466 0.109747 13.0291 0.305097 13.1637C0.500448 13.2982 0.765399 13.3738 1.04167 13.3738H23.9583C24.2346 13.3738 24.4996 13.2982 24.6949 13.1637C24.8903 13.0291 25 12.8466 25 12.6563C25 12.466 24.8903 12.2835 24.6949 12.1489C24.4996 12.0143 24.2346 11.9387 23.9583 11.9387Z" fill="#FDEADC"/>
</svg>
