<svg width="12" height="11" viewBox="0 0 12 11" fill="none" xmlns="http://www.w3.org/2000/svg">
<path d="M7.24555 10.2065L7.25094 10.2102C7.71639 10.5066 8.26903 10.6353 8.81753 10.5751C9.36603 10.5148 9.87757 10.2692 10.2676 9.87893L10.6065 9.54009C10.6815 9.46505 10.7411 9.37595 10.7817 9.27788C10.8224 9.17981 10.8433 9.07469 10.8433 8.96854C10.8433 8.86238 10.8224 8.75726 10.7817 8.6592C10.7411 8.56113 10.6815 8.47202 10.6065 8.39698L9.1773 6.96891C9.10226 6.89382 9.01316 6.83426 8.91509 6.79362C8.81702 6.75298 8.71191 6.73206 8.60575 6.73206C8.49959 6.73206 8.39448 6.75298 8.29641 6.79362C8.19834 6.83426 8.10924 6.89382 8.0342 6.96891C7.88267 7.1204 7.67718 7.20549 7.46291 7.20549C7.24865 7.20549 7.04316 7.1204 6.89163 6.96891L4.6065 4.68324C4.45501 4.53171 4.36991 4.32622 4.36991 4.11196C4.36991 3.89769 4.45501 3.6922 4.6065 3.54067C4.68158 3.46563 4.74115 3.37653 4.78179 3.27846C4.82243 3.18039 4.84335 3.07528 4.84335 2.96912C4.84335 2.86296 4.82243 2.75785 4.78179 2.65978C4.74115 2.56171 4.68158 2.47261 4.6065 2.39757L3.17788 0.969493C3.02635 0.818009 2.82086 0.73291 2.6066 0.73291C2.39234 0.73291 2.18685 0.818009 2.03532 0.969493L1.69594 1.30833C1.30571 1.69844 1.06024 2.21001 1.0001 2.75851C0.939962 3.30701 1.06875 3.85961 1.36518 4.32501L1.36842 4.3304C2.93395 6.64666 4.929 8.64134 7.24555 10.2065V10.2065Z" stroke="#D67888" stroke-width="0.827957" stroke-linecap="round" stroke-linejoin="round"/>
</svg>
