<svg width="10" height="12" viewBox="0 0 10 12" fill="none" xmlns="http://www.w3.org/2000/svg">
<path d="M8.97145 5.33379C8.97145 8.51483 5.71332 10.4746 5.03624 10.8479C4.99873 10.8685 4.95659 10.8794 4.91375 10.8794C4.87092 10.8794 4.82878 10.8685 4.79127 10.8479C4.11368 10.4746 0.856567 8.51483 0.856567 5.33379C0.856567 2.7979 2.37811 1.02277 4.91401 1.02277C7.44991 1.02277 8.97145 2.7979 8.97145 5.33379Z" stroke="#D67888" stroke-width="0.827957" stroke-linecap="round" stroke-linejoin="round"/>
<path d="M2.88531 5.0802C2.88531 5.61825 3.09905 6.13427 3.47951 6.51472C3.85997 6.89518 4.37598 7.10892 4.91403 7.10892C5.45208 7.10892 5.9681 6.89518 6.34856 6.51472C6.72901 6.13427 6.94275 5.61825 6.94275 5.0802C6.94275 4.54215 6.72901 4.02614 6.34856 3.64568C5.9681 3.26522 5.45208 3.05148 4.91403 3.05148C4.37598 3.05148 3.85997 3.26522 3.47951 3.64568C3.09905 4.02614 2.88531 4.54215 2.88531 5.0802V5.0802Z" stroke="#D67888" stroke-width="0.827957" stroke-linecap="round" stroke-linejoin="round"/>
</svg>
